# Blender 3.6.5
# www.blender.org
mtllib szandi_ajto.mtl
o Cylinder
v 0.000000 1.560000 -1.500000
v 0.000000 1.560000 1.500000
v 0.195090 1.535021 -1.500000
v 0.195090 1.535021 1.500000
v 0.382683 1.461043 -1.500000
v 0.382683 1.461043 1.500000
v 0.555570 1.340911 -1.500000
v 0.555570 1.340910 1.500000
v 0.707107 1.179239 -1.500000
v 0.707107 1.179239 1.500000
v 0.831470 0.982241 -1.500000
v 0.831470 0.982241 1.500000
v 0.923880 0.757488 -1.500000
v 0.923880 0.757488 1.500000
v 0.980785 0.513617 -1.500000
v 0.980785 0.513617 1.500000
v 1.000000 0.260000 -1.500000
v 1.000000 0.260000 1.500000
v 1.000000 0.260000 -1.500000
v 1.000000 0.260000 1.500000
v -1.000000 0.260000 -1.500000
v -1.000000 0.260000 1.500000
v -1.000000 0.260000 -1.500000
v -1.000000 0.260000 1.500000
v -0.980785 0.513617 -1.500000
v -0.980785 0.513617 1.500000
v -0.923880 0.757488 -1.500000
v -0.923880 0.757488 1.500000
v -0.831470 0.982241 -1.500000
v -0.831470 0.982241 1.500000
v -0.707107 1.179239 -1.500000
v -0.707107 1.179239 1.500000
v -0.555570 1.340911 -1.500000
v -0.555570 1.340910 1.500000
v -0.382683 1.461043 -1.500000
v -0.382683 1.461043 1.500000
v -0.195090 1.535021 -1.500000
v -0.195090 1.556912 1.500000
v 0.977445 0.519158 -1.500138
v 0.996660 0.265541 -1.500138
v -1.000000 0.260000 -1.500000
v -0.980785 0.513617 -1.500000
v 0.000000 1.560000 -1.500000
v 0.000000 1.560000 -1.500000
v -0.195090 1.535021 -1.500000
v 0.000000 1.560000 -1.500000
v -0.195090 1.535021 -1.500000
v 0.000000 1.560000 -1.500000
v -0.195090 1.535021 -1.500000
v 0.911707 0.763665 1.500000
v 0.829003 0.987828 1.500000
v 0.918665 0.780587 1.500000
v 0.001117 1.557572 1.500000
v 0.702248 1.183981 1.500000
v 0.371057 1.463579 1.500000
v 0.552507 1.344639 1.500000
v 0.196611 1.534876 1.500000
v 0.980785 0.513617 1.494274
v 0.976492 0.522640 1.503167
v 1.002516 0.269231 1.503240
v -0.712353 1.173956 -1.500000
v -1.864506 1.527356 -1.500000
v -0.981806 0.500139 -1.500000
v -0.979118 0.512587 -1.500073
v -0.981324 0.502492 -1.500073
v -0.558727 1.336764 -1.500000
v -1.000335 0.258834 -1.500072
v -0.928008 0.750597 -1.500000
v -0.980537 0.512582 -1.500073
v -0.835374 0.976038 -1.500000
v -0.388701 1.458173 -1.500000
v -0.981813 0.500057 -1.500000
v -0.211593 1.528094 -1.500000
v -0.262707 1.508647 -1.500000
v -0.350047 1.474271 -1.500000
v -0.981343 0.507027 -1.499935
v -0.927946 0.751269 -1.499938
v -0.980028 0.512584 -1.500073
v -0.980787 0.509382 -1.500073
v -0.943067 0.668485 -1.499937
v -0.000061 1.560582 -1.500000
v -0.195212 1.535046 -1.500000
v -0.877675 0.869865 1.500000
v -0.900777 0.813677 1.500000
v -0.979563 0.515871 1.499684
v -0.922657 0.759742 1.499684
v -0.952332 0.635553 1.500000
v -0.938106 0.696521 1.500000
v -0.930993 0.727005 1.500000
v -0.927436 0.742246 1.500000
v -0.925658 0.749867 1.500000
v -0.966559 0.574585 1.500000
v -0.973672 0.544101 1.500000
v -0.977229 0.528859 1.500000
v -0.970115 0.559343 1.500000
v -0.971894 0.551722 1.500000
v -0.972783 0.547912 1.500000
v -0.951110 0.637807 1.499684
v -0.975450 0.536480 1.500000
v -0.965337 0.576839 1.499684
v -0.972450 0.546355 1.499684
v -0.976006 0.531113 1.499684
v -0.979007 0.521238 1.500000
v -0.929214 0.734626 1.500000
v -0.912328 0.785582 1.500000
v -0.906553 0.799630 1.500000
v -0.903665 0.806653 1.500000
v -0.889226 0.841771 1.500000
v -0.883450 0.855818 1.500000
v -0.854572 0.926053 1.500000
v -1.000000 0.260000 1.500000
v -0.980785 0.513617 1.500000
v -0.980785 0.513617 1.500000
v -0.923880 0.757488 1.500000
v 0.922953 0.766002 1.502988
v 0.976492 0.522640 1.503167
v -0.952332 0.635553 1.500000
v -0.938106 0.696521 1.500000
v -0.930993 0.727005 1.500000
v -0.927436 0.742246 1.500000
v -0.925658 0.749867 1.500000
v -0.966559 0.574585 1.500000
v -0.973672 0.544101 1.500000
v -0.977229 0.528859 1.500000
v -0.970115 0.559343 1.500000
v -0.971894 0.551722 1.500000
v -0.972783 0.547912 1.500000
v -0.975450 0.536480 1.500000
v -0.979007 0.521238 1.500000
v -0.929214 0.734626 1.500000
vn 0.1270 0.9919 -0.0000
vn 0.3669 0.9303 -0.0000
vn 0.5706 0.8212 -0.0000
vn 0.7296 0.6839 -0.0000
vn 0.8456 0.5338 -0.0000
vn 0.9249 0.3803 -0.0000
vn 0.9738 0.2272 -0.0000
vn 0.9971 0.0755 -0.0000
vn -0.0000 -0.0000 1.0000
vn -0.9971 0.0755 -0.0000
vn -0.9738 0.2272 -0.0000
vn -0.9249 0.3803 -0.0000
vn -0.8456 0.5338 -0.0000
vn -0.7296 0.6839 -0.0000
vn -0.5706 0.8212 -0.0000
vn -0.4124 0.9110 -0.0033
vn -0.0717 0.9974 -0.0036
vn 0.0473 0.0036 -0.9989
vn -0.0016 0.0001 1.0000
vn -0.0001 0.0249 0.9997
vn -0.0000 -0.0000 -1.0000
vn -0.0001 -0.0000 -1.0000
vn -0.0000 0.0249 0.9997
vn -0.4114 0.0960 -0.9064
vn -0.0016 0.0004 1.0000
vt 1.000000 0.500000
vt 1.000000 1.000000
vt 0.968750 1.000000
vt 0.968750 0.500000
vt 0.937500 1.000000
vt 0.937500 0.500000
vt 0.906250 1.000000
vt 0.906250 0.500000
vt 0.875000 1.000000
vt 0.875000 0.500000
vt 0.843750 1.000000
vt 0.843750 0.500000
vt 0.812500 1.000000
vt 0.812500 0.500000
vt 0.781250 1.000000
vt 0.781250 0.999046
vt 0.781250 0.500000
vt 0.750000 1.000000
vt 0.750000 0.500000
vt 0.010000 0.250000
vt 0.250000 0.500000
vt 0.250000 1.000000
vt 0.218750 1.000000
vt 0.218750 0.500000
vt 0.220421 0.500000
vt 0.217773 1.000000
vt 0.216797 1.000000
vt 0.215820 1.000000
vt 0.214844 1.000000
vt 0.214355 1.000000
vt 0.213867 1.000000
vt 0.212891 1.000000
vt 0.210938 1.000000
vt 0.203125 1.000000
vt 0.195312 1.000000
vt 0.191406 1.000000
vt 0.190430 1.000000
vt 0.189453 1.000000
vt 0.188477 1.000000
vt 0.187500 1.000000
vt 0.187500 0.500000
vt 0.183594 1.000000
vt 0.181641 1.000000
vt 0.180664 1.000000
vt 0.179688 1.000000
vt 0.175781 1.000000
vt 0.173828 1.000000
vt 0.171875 1.000000
vt 0.164062 1.000000
vt 0.156250 1.000000
vt 0.156250 0.500000
vt 0.125000 1.000000
vt 0.125000 0.500000
vt 0.093750 1.000000
vt 0.093750 0.500000
vt 0.062500 1.000000
vt 0.062500 0.500000
vt 0.031250 1.000000
vt 0.031250 0.500000
vt 0.000000 1.000000
vt 0.000000 0.500000
vt 0.220411 0.500000
vt 0.598031 0.858468
vt 0.548747 0.697069
vt 0.980770 0.737936
vt 0.932259 0.874974
vt 0.511851 0.521013
vt 0.505102 0.471120
vt 0.498353 0.421227
vt 0.496666 0.408754
vt 0.494979 0.396280
vt 0.491604 0.371334
vt 0.490761 0.365097
vt 0.489917 0.358861
vt 0.488230 0.346387
vt 0.484855 0.321441
vt 1.044991 0.374668
vt 1.047024 0.389694
vt 1.018551 0.569162
vt 0.646241 0.952733
vt 0.876248 0.974589
vt 0.702975 1.041720
vt 0.822630 1.032591
vt 0.762849 1.047409
vt 0.781250 0.500000
vt 0.780007 0.500000
vt 0.801907 0.500000
vt 0.944176 0.500000
vt 0.958426 0.500000
vt 0.966484 0.500000
vt 0.780856 0.500000
vt 0.966579 0.500000
vt 0.967679 0.500000
vt 0.000000 0.000000
vt 1.032713 0.404281
s 0
usemtl CylinderMaterial
f 1/1/1 2/2/1 4/3/1 3/4/1
f 3/4/2 4/3/2 6/5/2 5/6/2
f 5/6/3 6/5/3 8/7/3 7/8/3
f 7/8/4 8/7/4 10/9/4 9/10/4
f 9/10/5 10/9/5 12/11/5 11/12/5
f 11/12/6 12/11/6 14/13/6 13/14/6
f 13/14/7 14/13/7 16/15/7 58/16/7 15/17/7
f 15/17/8 58/16/8 18/18/8 17/19/8
f 17/19/9 18/18/9 20/18/9 19/19/9
f 21/20/9 22/20/9 24/20/9 23/20/9
f 23/21/10 24/22/10 26/23/10 25/24/10 72/25/10
f 25/24/11 26/23/11 103/26/11 94/27/11 99/28/11 93/29/11 97/30/11 96/31/11 95/32/11 92/33/11 87/34/11 88/35/11 89/36/11 104/37/11 90/38/11 91/39/11 28/40/11 27/41/11
f 27/41/12 28/40/12 105/42/12 106/43/12 107/44/12 84/45/12 108/46/12 109/47/12 83/48/12 110/49/12 30/50/12 29/51/12
f 29/51/13 30/50/13 32/52/13 31/53/13
f 31/53/14 32/52/14 34/54/14 33/55/14
f 33/55/15 34/54/15 36/56/15 35/57/15
f 35/57/16 36/56/16 38/58/16 37/59/16
f 37/59/17 38/58/17 2/60/17 1/61/17
f 15/17/18 17/19/18 40/19/18 39/17/18
f 23/21/9 72/25/9 25/24/9 42/24/9 63/62/9 41/21/9
f 37/59/9 1/61/9 44/61/9 45/59/9
f 45/59/9 44/61/9 46/61/9 47/59/9
f 47/59/9 46/61/9 48/61/9 49/59/9
f 26/23/19 24/22/19 60/22/19 59/23/19
f 34/63/9 32/64/9 54/65/9 56/66/9
f 30/67/9 110/68/9 83/69/9 109/70/9 108/71/9 84/72/9 107/73/9 106/74/9 105/75/9 28/76/9 50/77/9 52/78/9 51/79/9
f 36/80/9 34/63/9 56/66/9 55/81/9
f 32/64/9 30/67/9 51/79/9 54/65/9
f 38/82/9 36/80/9 55/81/9 57/83/9 53/84/9
f 18/18/8 58/16/8 16/15/8
f 15/17/20 39/17/20 64/17/20 78/17/20 76/85/20
f 39/17/21 40/19/21 67/19/21 65/86/21 64/17/21
f 13/14/21 15/17/21 76/85/21 80/87/21 77/14/21
f 5/6/21 7/8/21 66/8/21 71/6/21
f 11/12/21 13/14/21 68/14/21 70/12/21
f 7/8/21 9/10/21 61/10/21 66/8/21
f 9/10/21 11/12/21 70/12/21 61/10/21
f 71/6/21 75/88/21 74/89/21 73/90/21 3/4/21 5/6/21
f 64/17/22 65/86/22 79/91/22 78/17/22
f 69/17/23 76/85/23 78/17/23
f 78/17/21 79/91/21 69/17/21
f 73/90/21 82/92/21 81/93/21 3/4/21
f 26/23/24 103/26/24 94/27/24 99/28/24 93/29/24 97/30/24 96/31/24 95/32/24 92/33/24 87/34/24 88/35/24 89/36/24 104/37/24 90/38/24 91/39/24 28/40/24 86/40/24 98/34/24 100/33/24 101/29/24 102/27/24 85/23/24
f 24/22/9 26/23/9 112/23/9 111/22/9
f 89/94/21 88/94/21 87/94/21 92/94/21 95/94/21 96/94/21 97/94/21 93/94/21 99/94/21 28/94/21 91/94/21 90/94/21 104/94/21
f 105/94/21 106/94/21 107/94/21 84/94/21 108/94/21 109/94/21 83/94/21 110/94/21 30/94/21 28/94/21
f 114/40/25 121/39/25 120/38/25 130/37/25 119/36/25 118/35/25 117/34/25 122/33/25 125/95/25 126/31/25 127/30/25 123/29/25 128/28/25 124/27/25 129/26/25 113/23/25 116/23/25 115/40/25

